# xmcd
#
# Track frame offsets: 
#        150
#        22318
#        39995
#        56510
#        82081
#        99237
#        119725
#        141630
#        157811
#        181345
#        200520
#        220622
#
# Disc length: 3183 seconds
#
# Revision: 0
# Processed by: cddbd v1.5.2PL0 Copyright (c) Steve Scherf et al.
# Submitted via: ExactAudioCopy v0.99pb5
#
DISCID=aa0c6d0c
DTITLE=Jarekus Singleton - Refuse To Lose
DYEAR=2014
DGENRE=Blues
TTITLE0=I Refuse To Lose
TTITLE1=Purposely
TTITLE2=Gonna Let Go
TTITLE3=Crime Scene
TTITLE4=Keep Pushin
TTITLE5=Suspicion
TTITLE6=Hell
TTITLE7=Hero
TTITLE8=High Minded
TTITLE9=Sorry
TTITLE10=Blame Game
TTITLE11=Come Wit Me
EXTD=
EXTT0=
EXTT1=
EXTT2=
EXTT3=
EXTT4=
EXTT5=
EXTT6=
EXTT7=
EXTT8=
EXTT9=
EXTT10=
EXTT11=
PLAYORDER=
